SplineFontDB: 3.2
FontName: MahoneSansBoldItalic
FullName: MahoneSans Bold Italic
FamilyName: MahoneSans
Weight: Bold
Copyright: Copyright (c) 2022, Marco G Mahone
UComments: "2022-4-30: Created with FontForge (http://fontforge.org)"
Version: 001.000
ItalicAngle: 0
UnderlinePosition: -100
UnderlineWidth: 50
Ascent: 800
Descent: 200
InvalidEm: 0
LayerCount: 2
Layer: 0 0 "Back" 1
Layer: 1 0 "Fore" 0
XUID: [1021 174 643576185 27755]
FSType: 0
OS2Version: 0
OS2_WeightWidthSlopeOnly: 0
OS2_UseTypoMetrics: 1
CreationTime: 1651348897
ModificationTime: 1651363000
PfmFamily: 33
TTFWeight: 700
TTFWidth: 5
LineGap: 90
VLineGap: 0
OS2TypoAscent: 0
OS2TypoAOffset: 1
OS2TypoDescent: 0
OS2TypoDOffset: 1
OS2TypoLinegap: 90
OS2WinAscent: 0
OS2WinAOffset: 1
OS2WinDescent: 0
OS2WinDOffset: 1
HheadAscent: 0
HheadAOffset: 1
HheadDescent: 0
HheadDOffset: 1
OS2Vendor: 'PfEd'
MarkAttachClasses: 1
DEI: 91125
Encoding: ISO8859-1
UnicodeInterp: none
NameList: AGL For New Fonts
DisplaySize: -72
AntiAlias: 1
FitToEm: 0
WidthSeparation: 70
WinInfo: 0 25 9
BeginPrivate: 0
EndPrivate
Grid
-197 -193 m 0
 773 -193 l 1024
  Named: "descender"
-196 645.400390625 m 0
 765 645.400390625 l 1024
  Named: "ascender"
-198.287109375 422.400390625 m 0
 760.712890625 422.400390625 l 1024
  Named: "x-height"
-196 628 m 0
 764 628 l 1024
  Named: "capital"
EndSplineSet
BeginChars: 256 71

StartChar: zero
Encoding: 48 48 0
Width: 608
Flags: HW
HStem: -12.5596 138.462<231.968 379.81> 502.098 138.462<231.968 379.81>
VStem: 42 136.849<187.008 440.992> 432.929 136.849<187.008 440.992>
LayerCount: 2
Fore
SplineSet
179.721679688 320.6484375 m 0
 161.818359375 206.987304688 178.138671875 131.333007812 276.301757812 126.16015625 c 0
 374.463867188 120.987304688 414.15234375 193.689453125 432.055664062 307.3515625 c 4
 449.958984375 421.012695312 433.638671875 496.666992188 335.475585938 501.83984375 c 0
 237.313476562 507.012695312 197.625 434.310546875 179.721679688 320.6484375 c 0
43.8134765625 327.810546875 m 0
 74.89453125 525.139648438 186.834960938 649.092773438 357.254882812 640.112304688 c 0
 527.67578125 631.130859375 599.045898438 497.517578125 567.963867188 300.189453125 c 4
 536.8828125 102.860351562 424.942382812 -21.0927734375 254.522460938 -12.1123046875 c 0
 84.1015625 -3.130859375 12.7314453125 130.482421875 43.8134765625 327.810546875 c 0
EndSplineSet
EndChar

StartChar: one
Encoding: 49 49 1
Width: 393
Flags: HW
LayerCount: 2
Fore
SplineSet
218.81640625 474 m 5
 112.408203125 394 l 5
 50.1796875 506 l 5
 235.002929688 628 l 5
 218.81640625 474 l 5
168.997070312 0 m 1
 235.002929688 628 l 1
 377.002929688 628 l 1
 310.997070312 0 l 1
 168.997070312 0 l 1
EndSplineSet
EndChar

StartChar: two
Encoding: 50 50 2
Width: 534
Flags: HW
LayerCount: 2
Fore
SplineSet
6.0322265625 120.833984375 m 5
 78.1171875 127.104492188 l 5
 464.60546875 130.8203125 l 1
 444 0 l 1
 -13 0 l 5
 6.0322265625 120.833984375 l 5
278.708984375 363.528320312 m 0
 349.708984375 388.6640625 373.375 411.181640625 378.694335938 444.953125 c 0
 384.013671875 478.723632812 348.953125 498.978515625 270.65234375 503.104492188 c 0
 190.091796875 507.349609375 113.29296875 469.0078125 113.29296875 469.0078125 c 1
 91.0234375 603.094726562 l 1
 91.0234375 603.094726562 182.49609375 647.169921875 292.432617188 641.376953125 c 0
 442.990234375 633.442382812 535.302734375 569.209960938 516.8046875 451.771484375 c 0
 495.16015625 314.360351562 383.794921875 254.375976562 276.634765625 223.2109375 c 0
 168.104492188 191.647460938 153.698242188 147.685546875 136.166992188 106.319335938 c 1
 118.046875 35.7822265625 l 1
 6.0322265625 120.833984375 l 5
 77.306640625 287.247070312 179.969747146 328.572207485 278.708984375 363.528320312 c 0
EndSplineSet
EndChar

StartChar: three
Encoding: 51 51 3
Width: 535
Flags: HW
LayerCount: 2
Fore
SplineSet
231.028320312 359.040039062 m 1
 457.510742188 341.063476562 483.6640625 219.603515625 473.03125 152.096679688 c 0
 454.533203125 34.658203125 333.741210938 -18.3447265625 183.18359375 -10.41015625 c 0
 73.2470703125 -4.6171875 -10.71484375 57.62109375 -10.71484375 57.62109375 c 5
 60.8466796875 177.845703125 l 5
 60.8466796875 177.845703125 124.40234375 132.107421875 204.962890625 127.862304688 c 0
 283.262695312 123.735351562 335.578125 149.455078125 340.897460938 183.225585938 c 0
 349.36328125 236.969726562 283.411132812 265.657226562 216.87109375 269.1640625 c 1
 231.028320312 359.040039062 l 1
224.736328125 319.095703125 m 1
 235.747070312 388.999023438 l 1
 299.307617188 385.649414062 365.02734375 396.466796875 371.919921875 440.224609375 c 0
 377.239257812 473.995117188 342.96484375 499.243164062 264.665039062 503.369140625 c 0
 184.104492188 507.615234375 138.671875 477.689453125 138.671875 477.689453125 c 5
 104.8984375 602.313476562 l 5
 104.8984375 602.313476562 176.5078125 647.434570312 286.444335938 641.641601562 c 0
 437.002929688 633.70703125 529.314453125 569.474609375 510.81640625 452.036132812 c 0
 492.318359375 334.59765625 352.319335938 296.260742188 224.736328125 319.095703125 c 1
EndSplineSet
EndChar

StartChar: four
Encoding: 52 52 4
Width: 598
Flags: HW
LayerCount: 2
Fore
SplineSet
533.380859375 145 m 5
 19.380859375 145 l 5
 40.171875 277 l 5
 554.171875 277 l 5
 533.380859375 145 l 5
337.791992188 446 m 1
 190.171875 277 l 5
 40.171875 277 l 5
 366.458984375 628 l 1
 337.791992188 446 l 1
267.541015625 0 m 1
 366.458984375 628 l 1
 508.458984375 628 l 1
 409.541015625 0 l 1
 267.541015625 0 l 1
EndSplineSet
EndChar

StartChar: five
Encoding: 53 53 5
Width: 542
Flags: HW
LayerCount: 2
Fore
SplineSet
128 628 m 1
 251.1484375 621.510742188 l 1
 161.830078125 326.689453125 l 1
 51.3095703125 354.720703125 l 1
 128 628 l 1
128 628 m 1
 529 628 l 1
 508.39453125 497.1796875 l 1
 188.39453125 497.1796875 l 1
 128 628 l 1
90.8173828125 270.016601562 m 1
 51.3095703125 354.720703125 l 0
 152.438476562 362.426757812 l 1
 236.3203125 443.59375 524.688476562 429.999023438 488.416992188 199.724609375 c 0
 466.7734375 62.3134765625 346.44140625 -18.8515625 195.883789062 -10.9169921875 c 0
 85.9462890625 -5.1240234375 -10.111328125 48.833984375 -10.111328125 48.833984375 c 1
 53.68359375 178.384765625 l 1
 53.68359375 178.384765625 137.102539062 131.599609375 217.663085938 127.354492188 c 0
 295.962890625 123.228515625 339.919921875 159.45703125 348.385742188 213.201171875 c 0
 356.850585938 266.944335938 322.676757812 343.385742188 90.8173828125 270.016601562 c 1
EndSplineSet
EndChar

StartChar: six
Encoding: 54 54 6
Width: 589
Flags: HW
LayerCount: 2
Fore
SplineSet
276.69921875 125.850585938 m 0
 335.146484375 122.770507812 374.84765625 150.82421875 383.297851562 200.705078125 c 0
 388.565429688 231.802734375 375.184570312 271.860351562 300.954101562 275.528320312 c 0
 238.743164062 278.602539062 203.123046875 252.0234375 196.903320312 212.541015625 c 0
 187.75 154.42578125 226.72265625 128.484375 276.69921875 125.850585938 c 0
180.280273438 324.01953125 m 1
 204.689453125 362.764648438 250.907226562 400.891601562 337.982421875 396.180664062 c 0
 484.053710938 388.278320312 550.469726562 300.831054688 531.372070312 180.818359375 c 0
 514.233398438 73.1162109375 414.35546875 -21.0029296875 254.4609375 -12.5771484375 c 0
 84.0400390625 -3.5966796875 12.6708984375 130.016601562 43.751953125 327.345703125 c 0
 74.833984375 524.674804688 186.7734375 648.627929688 377.056640625 638.600585938 c 0
 516.787109375 631.236328125 575.93359375 559.0859375 575.93359375 559.0859375 c 1
 489.00390625 445.857421875 l 1
 489.00390625 445.857421875 445.76953125 495.559570312 365.208984375 499.8046875 c 0
 258.349609375 505.435546875 198.638671875 434.225585938 180.280273438 324.01953125 c 1
EndSplineSet
EndChar

StartChar: seven
Encoding: 55 55 7
Width: 528
Flags: HW
LayerCount: 2
Fore
SplineSet
522.666992188 496 m 1
 64.6669921875 496 l 1
 85.458984375 628 l 1
 543.458984375 628 l 1
 522.666992188 496 l 1
79.541015625 0 m 1
 153.8828125 345 380.666992188 496 380.666992188 496 c 1
 522.666992188 496 l 1
 522.666992188 496 308.560546875 362 231.541015625 0 c 1
 79.541015625 0 l 1
EndSplineSet
EndChar

StartChar: eight
Encoding: 56 56 8
Width: 566
Flags: HW
LayerCount: 2
Fore
SplineSet
224.4140625 459.875976562 m 0
 220.198242188 433.11328125 241.55078125 407.330078125 300.103515625 404.244140625 c 0
 358.65625 401.159179688 387.454101562 422.651367188 391.926757812 451.047851562 c 0
 397.186523438 484.438476562 376.20703125 512.58203125 317.653320312 515.66796875 c 0
 259.100585938 518.752929688 229.673828125 493.265625 224.4140625 459.875976562 c 0
95.1533203125 485.819335938 m 0
 111.487304688 589.516601562 203.739257812 647.1484375 337.254882812 640.112304688 c 0
 470.770507812 633.076171875 543.498046875 566.750976562 527.165039062 463.052734375 c 0
 509.2578125 349.369140625 418.736328125 302.72265625 285.220703125 309.758789062 c 0
 151.705078125 316.794921875 77.5048828125 373.768554688 95.1533203125 485.819335938 c 0
160.973632812 207.807617188 m 0
 154.3671875 165.865234375 178.001953125 130.286132812 256.301757812 126.16015625 c 0
 334.6015625 122.034179688 367.68359375 152.793945312 374.576171875 196.551757812 c 0
 379.895507812 230.322265625 357.59765625 268.029296875 279.297851562 272.155273438 c 0
 200.997070312 276.28125 166.29296875 241.579101562 160.973632812 207.807617188 c 0
23.2275390625 196.942382812 m 0
 41.7255859375 314.380859375 142.654296875 368.4296875 293.211914062 360.49609375 c 0
 443.770507812 352.561523438 526.151367188 288.852539062 507.653320312 171.4140625 c 0
 489.155273438 53.9755859375 385.080078125 -20.0458984375 234.522460938 -12.1123046875 c 0
 83.9638671875 -4.177734375 5.015625 81.318359375 23.2275390625 196.942382812 c 0
EndSplineSet
EndChar

StartChar: nine
Encoding: 57 57 9
Width: 584
Flags: HW
HStem: -12.5596 138.462<95.3958 337.87> 230.239 121.842<204.95 344.268> 502 138.56<210.369 344.524>
VStem: 36 147<375.524 473.843> 409.151 136.849<199.571 414.622>
LayerCount: 2
Fore
SplineSet
307.340820312 502.439453125 m 4
 248.893554688 505.51953125 209.192382812 477.465820312 200.743164062 427.584960938 c 4
 195.474609375 396.487304688 208.85546875 356.4296875 283.0859375 352.76171875 c 4
 345.296875 349.6875 380.91796875 376.266601562 387.13671875 415.749023438 c 4
 396.290039062 473.864257812 357.317382812 499.805664062 307.340820312 502.439453125 c 4
408.90234375 311.45703125 m 1
 408.90234375 311.45703125 356.171875 226.104492188 250.017578125 231.819335938 c 0
 103.940429688 239.68359375 37.5302734375 327.168945312 56.6279296875 447.181640625 c 0
 73.7666015625 554.883789062 173.64453125 649.002929688 333.5390625 640.577148438 c 0
 503.959960938 631.596679688 575.329101562 497.983398438 544.248046875 300.654296875 c 0
 513.166015625 103.325195312 401.2265625 -20.6279296875 210.943359375 -10.6005859375 c 0
 101.006835938 -4.806640625 37.845703125 20.708984375 37.845703125 20.708984375 c 1
 72.0908203125 157.28515625 l 1
 72.0908203125 157.28515625 122.368164062 133.487304688 212.860351562 128.71875 c 0
 350.748046875 121.452148438 391.508789062 200.962890625 408.33984375 307.81640625 c 0
 408.532226562 309.038085938 408.90234375 311.45703125 408.90234375 311.45703125 c 1
EndSplineSet
EndChar

StartChar: A
Encoding: 65 65 10
Width: 607
Flags: HW
HStem: 0 21G<32 179.414 426.586 574> 116 132<170 424> 608 20G<225.631 380.369>
LayerCount: 2
Fore
SplineSet
392.8125 116 m 1
 138.8125 116 l 1
 159.604492188 248 l 1
 413.604492188 248 l 1
 392.8125 116 l 1
524.541015625 0 m 1
 382.541015625 0 l 1
 311.458984375 628 l 1
 423.458984375 628 l 1
 524.541015625 0 l 1
-17.458984375 0 m 5
 281.458984375 628 l 5
 393.458984375 628 l 5
 124.541015625 0 l 5
 -17.458984375 0 l 5
EndSplineSet
EndChar

StartChar: B
Encoding: 66 66 11
Width: 536
Flags: HW
LayerCount: 2
Fore
SplineSet
235.107421875 251.418945312 m 2
 164.595703125 255.134765625 l 1
 186.375 393.407226562 l 1
 314.860351562 331.797851562 l 1
 357.48046875 329.009765625 l 2
 437.501953125 323.775390625 500.96484375 261.615234375 485.612304688 164.149414062 c 0
 468.05859375 52.703125 345.181549832 0.414530522296 225.578125 0.1923828125 c 2
 132 0 l 1
 147.05078125 143.75 l 1
 217.563476562 140.034179688 l 2
 265.076171875 137.530273438 333.82421875 134.069335938 342.918945312 191.807617188 c 0
 351.383789062 245.551757812 282.62109375 248.915039062 235.107421875 251.418945312 c 2
-18 0 m 1
 81 628 l 1
 222 628 l 1
 132 0 l 1
 -18 0 l 1
242.9921875 492.19921875 m 2
 202.274414062 494.344726562 l 1
 222 628 l 1
 285 628 l 2
 415 628 498.495877734 563.821476902 479.999023438 446.3828125 c 0
 468.737304688 374.880859375 409.041015625 306.696289062 326.611328125 311.040039062 c 2
 270.002929688 314.0234375 l 1
 164.595703125 255.134765625 l 1
 186.375 393.407226562 l 1
 227.09375 391.26171875 l 2
 274.606445312 388.7578125 325.065429688 396.330078125 331.013671875 434.095703125 c 0
 337.90625 477.852539062 290.505859375 489.6953125 242.9921875 492.19921875 c 2
EndSplineSet
EndChar

StartChar: C
Encoding: 67 67 12
Width: 566
Flags: HW
LayerCount: 2
Fore
SplineSet
37.6865234375 326.846679688 m 0
 68.7685546875 524.17578125 220.43359375 646.03515625 390.853515625 637.0546875 c 0
 500.790039062 631.260742188 554.020507812 606.268554688 554.020507812 606.268554688 c 1
 519.775390625 469.692382812 l 1
 519.775390625 469.692382812 479.428710938 492.966796875 388.936523438 497.735351562 c 0
 270.912109375 503.955078125 191.498046875 433.346679688 173.594726562 319.684570312 c 0
 155.692382812 206.0234375 211.737304688 128.275390625 329.762695312 122.055664062 c 0
 420.229492188 117.2890625 471.119140625 135.721679688 471.119140625 135.721679688 c 1
 477.3203125 -3.1630859375 l 1
 477.3203125 -3.1630859375 397.788085938 -20.9482421875 288.12109375 -15.1689453125 c 0
 117.700195312 -6.1884765625 6.60546875 129.518554688 37.6865234375 326.846679688 c 0
EndSplineSet
EndChar

StartChar: D
Encoding: 68 68 13
Width: 588
Flags: HW
LayerCount: 2
Fore
SplineSet
-2 0 m 1
 97 628 l 1
 241 628 l 1
 140 0 l 1
 -2 0 l 1
258.342773438 494.868164062 m 2
 218.342773438 494.868164062 l 1
 241 628 l 1
 291 628 l 2
 461 628 573.073265829 490.777493846 541.9921875 293.448242188 c 0
 510.911132812 96.119140625 369 -2.14306111919e-14 194 0 c 2
 140 0 l 1
 133.76953125 141.604492188 l 1
 213.76953125 141.604492188 l 2
 282 141.604492188 388.180664062 186.94921875 406.083984375 300.610351562 c 0
 423.987304688 414.271484375 374 494.868164062 258.342773438 494.868164062 c 2
EndSplineSet
EndChar

StartChar: E
Encoding: 69 69 14
Width: 498
Flags: HW
LayerCount: 2
Fore
SplineSet
372.864257812 256 m 1
 58.8642578125 256 l 1
 79.6552734375 388 l 1
 393.655273438 388 l 1
 372.864257812 256 l 1
399.541015625 0 m 1
 -1.458984375 0 l 1
 19.3330078125 132 l 1
 420.333007812 132 l 1
 399.541015625 0 l 1
477.666992188 496 m 1
 76.6669921875 496 l 1
 97.458984375 628 l 1
 498.458984375 628 l 1
 477.666992188 496 l 1
3.2666015625 30 m 1
 92.7333984375 598 l 1
 234.733398438 598 l 5
 145.266601562 30 l 5
 3.2666015625 30 l 1
EndSplineSet
EndChar

StartChar: F
Encoding: 70 70 15
Width: 494
Flags: HW
LayerCount: 2
Fore
SplineSet
366.40625 215 m 1
 52.40625 215 l 1
 73.1982421875 347 l 1
 387.198242188 347 l 1
 366.40625 215 l 1
477.666992188 496 m 5
 76.6669921875 496 l 5
 97.458984375 628 l 5
 498.458984375 628 l 5
 477.666992188 496 l 5
-1.458984375 0 m 1
 92.7333984375 598 l 1
 234.733398438 598 l 1
 140.541015625 0 l 1
 -1.458984375 0 l 1
EndSplineSet
EndChar

StartChar: G
Encoding: 71 71 16
Width: 658
Flags: HW
LayerCount: 2
Fore
SplineSet
595.380859375 222.297851562 m 1
 345.380859375 222.297851562 l 1
 366.14453125 354.116210938 l 1
 616.143554688 354.1171875 l 1
 595.380859375 222.297851562 l 1
423.506835938 227.72265625 m 5
 532.766601562 242.103515625 l 5
 579.778320312 81.5869140625 438.9765625 -20.8310546875 268.556640625 -11.8505859375 c 0
 98.1357421875 -2.869140625 6.9033203125 131.790039062 37.9853515625 329.119140625 c 0
 69.06640625 526.448242188 220.731445312 648.307617188 411.014648438 638.280273438 c 0
 520.951171875 632.487304688 584.112304688 606.970703125 584.112304688 606.970703125 c 1
 549.8671875 470.39453125 l 1
 549.8671875 470.39453125 499.58984375 494.192382812 409.09765625 498.9609375 c 0
 271.209960938 506.227539062 191.416015625 434.34765625 173.893554688 321.95703125 c 0
 159.100585938 227.079101562 192.173828125 131.594726562 290.3359375 126.421875 c 0
 388.499023438 121.249023438 451.692382812 145.73046875 423.506835938 227.72265625 c 5
EndSplineSet
EndChar

StartChar: H
Encoding: 72 72 17
Width: 604
Flags: HW
HStem: 0 21G<48 190 410 552> 256 132<68 532> 608 20G<48 190 410 552>
VStem: 48 142<0 256 388 628> 68 122<256 388> 410 142<0 256 388 628> 410 122<256 388>
LayerCount: 2
Fore
SplineSet
-1.458984375 0 m 1xf0
 97.458984375 628 l 1
 239.458984375 628 l 1
 140.541015625 0 l 1
 -1.458984375 0 l 1xf0
502.541015625 0 m 1xe4
 360.541015625 0 l 1
 459.458984375 628 l 1
 601.458984375 628 l 1
 502.541015625 0 l 1xe4
522.864257812 256 m 5xea
 58.8642578125 256 l 5
 79.6552734375 388 l 5
 543.655273438 388 l 5
 522.864257812 256 l 5xea
EndSplineSet
EndChar

StartChar: I
Encoding: 73 73 18
Width: 344
Flags: HW
HStem: 0 132<43 99 241 297> 30 102<99 241> 496 132<43 99 241 297> 496 102<99 241>
VStem: 43 254<0 132 496 628> 99 142<30 598>
LayerCount: 2
Fore
SplineSet
247.541015625 0 m 5x88
 -6.458984375 0 l 5
 14.3330078125 132 l 5
 268.333007812 132 l 5
 247.541015625 0 l 5x88
325.666992188 496 m 1x28
 71.6669921875 496 l 1
 92.458984375 628 l 1
 346.458984375 628 l 1
 325.666992188 496 l 1x28
54.2666015625 30 m 1x54
 143.733398438 598 l 1
 285.733398438 598 l 1
 196.266601562 30 l 1
 54.2666015625 30 l 1x54
EndSplineSet
EndChar

StartChar: J
Encoding: 74 74 19
Width: 504
Flags: HW
LayerCount: 2
Fore
SplineSet
301.181640625 200.846679688 m 2
 362.229492188 605.263671875 l 1
 483.236328125 496.180664062 l 1
 437.088867188 193.684570312 l 2
 419.104131558 75.7948280707 331.4140625 -18.8984375 196.565429688 -11.697265625 c 0
 73.6640625 -5.1337890625 20.240234375 88.7802734375 20.240234375 88.7802734375 c 1
 133.974609375 181.46484375 l 1
 169.739257812 97.0126953125 286.150476001 101.271375546 301.181640625 200.846679688 c 2
483.236328125 496.180664062 m 1
 228.237304688 496.181640625 l 1
 249 628 l 1
 504 628 l 1
 483.236328125 496.180664062 l 1
EndSplineSet
EndChar

StartChar: K
Encoding: 75 75 20
Width: 561
Flags: HW
LayerCount: 2
Fore
SplineSet
591.458984375 628 m 1
 120.805664062 135 l 0
 51.3037109375 208 l 1
 409.458984375 628 l 1
 591.458984375 628 l 1
-1.458984375 0 m 1
 97.458984375 628 l 1
 239.458984375 628 l 1
 140.541015625 0 l 1
 -1.458984375 0 l 1
502.541015625 5 m 1
 340.541015625 -5 l 1
 288.232566005 76.5259703181 240.447124259 159.183351508 209.2890625 246 c 1
 301.362304688 329 l 1
 356.167216653 217.835253654 427.259595117 110.876720046 502.541015625 5 c 1
EndSplineSet
EndChar

StartChar: L
Encoding: 76 76 21
Width: 501
Flags: HW
HStem: 0 132<48 456> 608 20G<48 190>
VStem: 48 142<132 628>
LayerCount: 2
Fore
SplineSet
-1.458984375 0 m 1
 97.458984375 628 l 1
 239.458984375 628 l 1
 140.541015625 0 l 5
 -1.458984375 0 l 1
406.541015625 0 m 5
 -1.458984375 0 l 1
 19.3330078125 132 l 1
 427.333007812 132 l 5
 406.541015625 0 l 5
EndSplineSet
EndChar

StartChar: M
Encoding: 77 77 22
Width: 704
Flags: HW
LayerCount: 2
Fore
SplineSet
377.318359375 170 m 1
 354.411132812 342 l 1
 559.458984375 628 l 1
 519.765625 376 l 5
 377.318359375 170 l 1
-1.458984375 0 m 1
 97.458984375 628 l 1
 239.458984375 628 l 1
 140.541015625 0 l 1
 -1.458984375 0 l 1
602.541015625 0 m 1
 460.541015625 0 l 1
 559.458984375 628 l 1
 701.458984375 628 l 1
 602.541015625 0 l 1
277.318359375 170 m 1
 199.765625 376 l 5
 239.458984375 628 l 1
 354.411132812 342 l 1
 377.318359375 170 l 1
 277.318359375 170 l 1
EndSplineSet
EndChar

StartChar: N
Encoding: 78 78 23
Width: 634
Flags: HW
LayerCount: 2
Fore
SplineSet
-1.458984375 0 m 1
 97.458984375 628 l 1
 239.458984375 628 l 1
 140.541015625 0 l 1
 -1.458984375 0 l 1
532.541015625 0 m 5
 390.541015625 0 l 5
 489.458984375 628 l 5
 631.458984375 628 l 5
 532.541015625 0 l 5
390.541015625 0 m 5
 199.765625 376 l 1
 239.458984375 628 l 1
 428.659179688 242 l 5
 390.541015625 0 l 5
EndSplineSet
EndChar

StartChar: O
Encoding: 79 79 24
Width: 687
Flags: HW
HStem: -12.5596 138.462<256.356 423.421> 502.098 138.462<256.356 423.421>
VStem: 36 136.849<217.23 410.77> 506.929 136.849<217.23 410.77>
LayerCount: 2
Fore
SplineSet
173.99609375 322.7421875 m 4
 156.09375 209.081054688 212.138671875 131.333007812 310.301757812 126.16015625 c 4
 408.463867188 120.987304688 487.877929688 191.596679688 505.78125 305.2578125 c 4
 523.68359375 418.918945312 467.638671875 496.666992188 369.475585938 501.83984375 c 0
 271.313476562 507.012695312 191.899414062 436.403320312 173.99609375 322.7421875 c 4
38.087890625 329.904296875 m 4
 69.169921875 527.233398438 220.834960938 649.092773438 391.254882812 640.112304688 c 0
 561.67578125 631.130859375 672.770507812 495.424804688 641.689453125 298.095703125 c 4
 610.607421875 100.766601562 458.942382812 -21.0927734375 288.522460938 -12.1123046875 c 4
 118.1015625 -3.130859375 7.0068359375 132.575195312 38.087890625 329.904296875 c 4
EndSplineSet
EndChar

StartChar: P
Encoding: 80 80 25
Width: 597
Flags: HW
LayerCount: 2
Fore
SplineSet
-2 0 m 1
 97 628 l 1
 240 628 l 1
 140 0 l 1
 -2 0 l 1
328.376953125 495.129882812 m 2
 218.376953125 495.129882812 l 1
 240 628 l 1
 351 628 l 2
 470.896484375 627.557617188 592.478841534 550.433388594 566.115234375 383.063476562 c 0
 540.6953125 221.684570312 411 186.016601562 289.688476562 186.016601562 c 2
 169.688476562 186.016601562 l 1
 191.467773438 324.288085938 l 1
 271.467773438 324.288085938 l 2
 339 324.288085938 420 325 430.678710938 393.220703125 c 0
 443.782866043 476.93630142 394 495.129882812 328.376953125 495.129882812 c 2
EndSplineSet
EndChar

StartChar: Q
Encoding: 81 81 26
Width: 719
Flags: HW
LayerCount: 2
Fore
SplineSet
321.008789062 140.727539062 m 0
 419.71484375 135.5546875 494.168945312 193.458007812 506.08203125 306.807617188 c 0
 517.99609375 420.15625 457.666015625 497.700195312 358.959960938 502.873046875 c 0
 260.25390625 508.045898438 184.374023438 437.640625 172.459960938 324.291992188 c 0
 160.546875 210.942382812 222.301757812 145.900390625 321.008789062 140.727539062 c 0
35.798828125 331.454101562 m 0
 56.482421875 528.240234375 202.088867188 649.74609375 373.453125 640.765625 c 0
 544.817382812 631.78515625 663.426757812 496.431640625 642.743164062 299.645507812 c 0
 632.086914062 198.255859375 552.994140625 131.473632812 552.994140625 131.473632812 c 1
 668.998046875 146.060546875 l 1
 671.159179688 13.7666015625 l 1
 671.159179688 13.7666015625 518.224609375 -8.259765625 306.515625 2.8349609375 c 0
 135.151367188 11.81640625 15.1162109375 134.666992188 35.798828125 331.454101562 c 0
EndSplineSet
EndChar

StartChar: R
Encoding: 82 82 27
Width: 611
Flags: HW
LayerCount: 2
Fore
SplineSet
328.470703125 495.83984375 m 2
 208.470703125 495.83984375 l 1
 229 628 l 1
 360 628 l 2
 499 628 583.357421875 556.135742188 560.140625 408.73828125 c 0
 537.8671875 267.333007812 417.516601562 223.489257812 297.74609375 229.80078125 c 2
 167.646484375 236.657226562 l 1
 187.852539062 364.943359375 l 1
 307.852539062 364.943359375 l 2
 358 364.943359375 414.821692167 356.164975562 423.916992188 413.903320312 c 0
 433.956054688 477.6328125 388.900390625 495.90625 328.470703125 495.83984375 c 2
-3 0 m 1
 96 628 l 1
 239 628 l 1
 140 0 l 1
 -3 0 l 1
524 5 m 5
 348 -5 l 1
 287.776446108 97.3476562528 240.530300382 199.695312497 197.958984375 302.04296875 c 1
 294.68359375 350.3125 l 5
 360.235934685 233.866491096 436.813274435 118.779400274 524 5 c 5
EndSplineSet
EndChar

StartChar: S
Encoding: 83 83 28
Width: 562
Flags: HW
LayerCount: 2
Fore
SplineSet
288.985351562 390.796875 m 0
 448.986328125 344.200195312 518.665039062 285.751953125 500.166992188 168.313476562 c 0
 481.669921875 50.875 358.204101562 -19.1044921875 217.577148438 -11.693359375 c 0
 87.7783203125 -4.853515625 -7.578125 71.2197265625 -7.578125 71.2197265625 c 1
 76.0078125 188.65234375 l 1
 76.0078125 188.65234375 129.001953125 132.39453125 239.356445312 126.579101562 c 0
 307.725585938 122.975585938 358.310546875 137.709960938 364.258789062 175.475585938 c 0
 369.578125 209.247070312 351.1328125 231.547851562 248.916015625 263.557617188 c 0
 146.177734375 295.731445312 58.0615234375 348.086914062 76.5595703125 465.525390625 c 0
 95.0576171875 582.963867188 207.491210938 646.475585938 358.048828125 638.541992188 c 0
 477.916992188 632.225585938 545.754882812 589.82421875 545.754882812 589.82421875 c 1
 481.958984375 460.272460938 l 1
 481.958984375 460.272460938 426.76171875 495.500976562 336.26953125 500.26953125 c 0
 257.969726562 504.396484375 217.158203125 488.139648438 211.838867188 454.369140625 c 0
 208.092773438 430.583984375 220.276367188 410.806640625 288.985351562 390.796875 c 0
EndSplineSet
EndChar

StartChar: T
Encoding: 84 84 29
Width: 552
Flags: HW
HStem: 0 21G<202 344> 496 132<39 202 344 507> 496 102<202 344>
VStem: 202 142<0 598>
LayerCount: 2
Fore
SplineSet
535.666992188 496 m 1xd0
 67.6669921875 496 l 5
 88.458984375 628 l 5
 556.458984375 628 l 1
 535.666992188 496 l 1xd0
152.541015625 0 m 1
 246.733398438 598 l 1
 388.733398438 598 l 1xb0
 294.541015625 0 l 1
 152.541015625 0 l 1
EndSplineSet
EndChar

StartChar: U
Encoding: 85 85 30
Width: 581
Flags: HW
LayerCount: 2
Fore
SplineSet
388.88671875 268.421875 m 2
 445 628 l 1
 582 628 l 5
 524.793945312 261.259765625 l 2
 500.237993761 103.834900783 407.927734375 -21.1240234375 237.506835938 -12.142578125 c 0
 67.0869140625 -3.162109375 16.5404064983 129.311567447 40.369140625 286.788085938 c 2
 92 628 l 1
 231 628 l 1
 176.27734375 279.625976562 l 2
 164.697248593 205.90506062 161.124023438 131.302734375 259.286132812 126.12890625 c 0
 357.44921875 120.956054688 377.383914067 194.71103778 388.88671875 268.421875 c 2
EndSplineSet
EndChar

StartChar: V
Encoding: 86 86 31
Width: 607
Flags: HW
LayerCount: 2
Fore
SplineSet
81.458984375 628 m 1
 223.458984375 628 l 1
 294.541015625 0 l 1
 182.541015625 0 l 1
 81.458984375 628 l 1
623.458984375 628 m 1
 324.541015625 0 l 1
 212.541015625 0 l 1
 481.458984375 628 l 1
 623.458984375 628 l 1
EndSplineSet
EndChar

StartChar: W
Encoding: 87 87 32
Width: 842
Flags: HW
LayerCount: 2
Fore
SplineSet
857.458984375 628 m 1
 588.541015625 0 l 1
 476.541015625 0 l 1
 715.458984375 628 l 1
 857.458984375 628 l 1
412.392578125 526 m 1
 524.392578125 526 l 1
 558.541015625 0 l 1
 446.541015625 0 l 1
 412.392578125 526 l 1
81.458984375 628 m 1
 223.458984375 628 l 1
 264.541015625 0 l 1
 152.541015625 0 l 1
 81.458984375 628 l 1
494.392578125 526 m 5
 294.541015625 0 l 5
 182.541015625 0 l 5
 382.392578125 526 l 5
 494.392578125 526 l 5
EndSplineSet
EndChar

StartChar: X
Encoding: 88 88 33
Width: 569
Flags: HW
LayerCount: 2
Fore
SplineSet
81.458984375 628 m 1
 223.458984375 628 l 1
 299.215820312 436 l 5
 484.541015625 0 l 1
 342.541015625 0 l 1
 267.619140625 210 l 1
 81.458984375 628 l 1
583.458984375 628 m 1
 267.619140625 210 l 1
 124.541015625 0 l 1
 -17.458984375 0 l 1
 299.215820312 436 l 5
 441.458984375 628 l 1
 583.458984375 628 l 1
EndSplineSet
EndChar

StartChar: Y
Encoding: 89 89 34
Width: 603
Flags: HW
LayerCount: 2
Fore
SplineSet
216.768554688 230 m 1
 358.768554688 230 l 1
 322.541015625 0 l 1
 180.541015625 0 l 1
 216.768554688 230 l 1
79.458984375 628 m 1
 231.458984375 628 l 1
 325.918945312 250 l 1
 358.768554688 230 l 1
 216.768554688 230 l 1
 79.458984375 628 l 1
621.458984375 628 m 1
 358.768554688 230 l 1
 243.918945312 250 l 1
 469.458984375 628 l 5
 621.458984375 628 l 1
EndSplineSet
EndChar

StartChar: Z
Encoding: 90 90 35
Width: 523
Flags: HW
LayerCount: 2
Fore
SplineSet
428.541015625 0 m 1
 -9.458984375 0 l 1
 11.3330078125 132 l 1
 449.333007812 132 l 1
 428.541015625 0 l 1
496.666992188 496 m 1
 78.6669921875 496 l 1
 99.458984375 628 l 1
 517.458984375 628 l 1
 496.666992188 496 l 1
11.3330078125 132 m 1
 344.666992188 496 l 1
 496.666992188 496 l 1
 173.333007812 132 l 5
 11.3330078125 132 l 1
EndSplineSet
EndChar

StartChar: a
Encoding: 97 97 36
Width: 496
Flags: HW
HStem: -10.0479 136.865<196.478 299.698> 0 21G<319.622 460.222> 295.582 136.865<196.478 299.698> 402.4 20G<319.622 460.222>
VStem: 33 144.206<145.746 276.654> 319.622 140.6<211.2 422.4> 319.622 43.5996<63.1201 359.279>
LayerCount: 2
Fore
SplineSet
444 5 m 5
 295 -5 l 5
 295 -5 289.947265625 27.994140625 299.202148438 85.884765625 c 6
 353 422.400390625 l 5
 494 422.400390625 l 5
 447.64453125 134.44921875 l 6
 437.524414062 71.583984375 444 5 444 5 c 5
261.374023438 295.387695312 m 0xa8
 222.384765625 297.442382812 187.568359375 277.588867188 177.682617188 214.833007812 c 0
 167.797851562 152.076171875 195.838867188 128.909179688 234.828125 126.854492188 c 0
 273.817382812 124.799804688 308.633789062 144.654296875 318.51953125 207.411132812 c 0
 328.404296875 270.166992188 300.36328125 293.333007812 261.374023438 295.387695312 c 0xa8
183.505859375 -8.2529296875 m 0
 71.00390625 -2.32421875 11.17578125 74.5029296875 34.4677734375 222.379882812 c 0
 57.759765625 370.255859375 140.606445312 439.564453125 253.108398438 433.635742188 c 0
 365.610351562 427.70703125 385.712890625 352.973632812 362.420898438 205.09765625 c 0xaa
 339.127929688 57.2197265625 296.0078125 -14.181640625 183.505859375 -8.2529296875 c 0
EndSplineSet
EndChar

StartChar: b
Encoding: 98 98 37
Width: 496
Flags: HW
LayerCount: 2
Fore
SplineSet
228.34765625 -11.220703125 m 0
 115.845703125 -5.2919921875 95.7431640625 69.44140625 119.036132812 217.318359375 c 0
 142.328125 365.194335938 185.448242188 436.596679688 297.950195312 430.66796875 c 0
 410.452148438 424.739257812 470.280273438 347.912109375 446.98828125 200.036132812 c 0
 423.696289062 52.158203125 340.849609375 -17.1494140625 228.34765625 -11.220703125 c 0
246.627929688 295.559570312 m 0
 207.638671875 297.614257812 172.822265625 277.76171875 162.9375 215.004882812 c 0
 153.051757812 152.248046875 181.092773438 129.081054688 220.08203125 127.026367188 c 0
 259.071289062 124.971679688 293.888671875 144.826171875 303.7734375 207.583007812 c 0
 313.658203125 270.33984375 285.6171875 293.504882812 246.627929688 295.559570312 c 0
-18 0 m 1
 84 645.400390625 l 5
 225 645.400390625 l 5
 137.51953125 89.2705078125 l 1
 112 0 l 1
 -18 0 l 1
EndSplineSet
EndChar

StartChar: c
Encoding: 99 99 38
Width: 423
Flags: HW
LayerCount: 2
Fore
SplineSet
29.265625 220.840820312 m 4
 52.5576171875 368.716796875 165.198242188 436.455078125 297.5625 429.479492188 c 4
 374.194335938 425.44140625 416.958984375 400.159179688 416.958984375 400.159179688 c 5
 385.637695312 263.360351562 l 5
 385.637695312 263.360351562 332.751953125 289.813476562 276.034179688 292.801757812 c 4
 217.182617188 295.903320312 182.366210938 276.049804688 172.48046875 213.29296875 c 4
 162.595703125 150.537109375 190.63671875 127.370117188 249.48828125 124.268554688 c 4
 304.462890625 121.372070312 363.940429688 139.56640625 363.940429688 139.56640625 c 1
 363.892578125 3.1845703125 l 1
 363.892578125 3.1845703125 304.375 -16.435546875 208.09765625 -11.3623046875 c 4
 115.458007812 -6.48046875 5.9736328125 72.9638671875 29.265625 220.840820312 c 4
EndSplineSet
EndChar

StartChar: d
Encoding: 100 100 39
Width: 500
Flags: HW
LayerCount: 2
Fore
SplineSet
235.711914062 296.1875 m 0
 196.72265625 298.2421875 161.905273438 278.389648438 152.020507812 215.6328125 c 0
 142.135742188 152.875976562 170.176757812 129.708984375 209.166015625 127.654296875 c 0
 248.154296875 125.599609375 282.971679688 145.454101562 292.856445312 208.2109375 c 0
 302.741210938 270.967773438 274.700195312 294.133789062 235.711914062 296.1875 c 0
157.84375 -7.453125 m 0
 45.341796875 -1.5244140625 -14.4873046875 75.302734375 8.8056640625 223.1796875 c 0
 32.09765625 371.055664062 114.944335938 440.364257812 227.446289062 434.435546875 c 0
 339.948242188 428.506835938 360.05078125 353.7734375 336.7578125 205.897460938 c 0
 313.465820312 58.0205078125 270.344726562 -13.3818359375 157.84375 -7.453125 c 0
424 5 m 1
 275 -5 l 1
 275 -5 270.112304688 27.958984375 279.202148438 85.884765625 c 2
 367 650.400390625 l 1
 508 640.400390625 l 1
 427.64453125 134.44921875 l 2
 417.750071058 71.5339485291 424 5 424 5 c 1
EndSplineSet
EndChar

StartChar: e
Encoding: 101 101 40
Width: 466
Flags: HW
LayerCount: 2
Fore
SplineSet
450.854492188 187.86328125 m 5
 313.830078125 166.313476562 181.634765625 164.794921875 45.697265625 184.041015625 c 5
 58.595703125 265.928710938 l 5
 203.264648438 251.256835938 296.12890625 256.83203125 376.357421875 274.356445312 c 5
 450.854492188 187.86328125 l 5
172.6640625 214.606445312 m 0
 162.880859375 152 171.05078125 129.926757812 259.633789062 125.2578125 c 0
 334.470703125 121.314453125 384.017578125 140.032226562 384.017578125 140.032226562 c 1
 395.473632812 13.11328125 l 1
 395.473632812 13.11328125 334.3828125 -16.4931640625 218.243164062 -10.373046875 c 0
 95.8515625 -3.9228515625 6.2861328125 74.404296875 29.4482421875 222.153320312 c 0
 52.6318359375 370.03515625 173.326171875 437.349609375 275.896484375 431.944335938 c 0
 380.453125 426.43359375 475.719726562 345.725585938 450.854492188 187.86328125 c 1
 307.623046875 195.411132812 l 1
 331.553710938 283.765625 290.377929688 293.369140625 254.368164062 295.266601562 c 0
 220.344726562 297.059570312 182.548828125 277.36328125 172.6640625 214.606445312 c 0
EndSplineSet
EndChar

StartChar: f
Encoding: 102 102 41
Width: 370
Flags: HW
HStem: 0 21G<97 237.6> 290.4 132<26 344> 531.405 136.865<253.525 387.096>
VStem: 97 140.6<0 511.486>
LayerCount: 2
Fore
SplineSet
335.237304688 290.581054688 m 1
 19.236328125 290.58203125 l 1
 40 422.400390625 l 1
 356 422.400390625 l 1
 335.237304688 290.581054688 l 1
127 -198 m 1
 -14 -188 l 1
 -14 -188 75 58 117.11328125 462.8203125 c 0
 133.648105279 621.763819914 251.47265625 668.448242188 363.974609375 662.51953125 c 0
 420.744140625 659.528320312 445.21875 645.279296875 445.21875 645.279296875 c 1
 413.897460938 508.48046875 l 1
 413.897460938 508.48046875 379.30078125 523.899414062 342.446289062 525.841796875 c 0
 303.45703125 527.896484375 262.704173726 518.709788011 256.74609375 455.461914062 c 0
 221 76 127 -198 127 -198 c 1
EndSplineSet
EndChar

StartChar: g
Encoding: 103 103 42
Width: 496
Flags: HW
LayerCount: 2
Fore
SplineSet
277.579101562 295.377929688 m 0
 238.58984375 297.432617188 203.772460938 277.579101562 193.887695312 214.822265625 c 0
 184.002929688 152.065429688 212.043945312 128.899414062 251.032226562 126.844726562 c 0
 290.021484375 124.790039062 324.838867188 144.643554688 334.723632812 207.400390625 c 0
 344.608398438 270.157226562 316.567382812 293.323242188 277.579101562 295.377929688 c 0
199.7109375 -8.263671875 m 0
 87.208984375 -2.3349609375 27.3798828125 74.4921875 50.6728515625 222.369140625 c 0
 73.96484375 370.24609375 156.811523438 439.553710938 269.313476562 433.625 c 0
 381.815429688 427.696289062 401.916992188 352.962890625 378.625 205.086914062 c 0
 355.333007812 57.2099609375 312.211914062 -14.1923828125 199.7109375 -8.263671875 c 0
374 427.400390625 m 5
 515 417.400390625 l 5
 447.548828125 -5.7919921875 l 2
 422.681556318 -163.6539844 311.616210938 -221.407226562 169.3203125 -213.908203125 c 0
 82.7578125 -209.346679688 49.9248046875 -184.587890625 49.9248046875 -184.587890625 c 1
 90.2333984375 -54.3037109375 l 1
 90.2333984375 -54.3037109375 124.201171875 -73.7177734375 190.848632812 -77.23046875 c 0
 259.631835938 -80.85546875 298.060504544 -61.1951544439 307.916015625 1.56640625 c 2
 374 427.400390625 l 5
EndSplineSet
EndChar

StartChar: h
Encoding: 104 104 43
Width: 497
Flags: HW
LayerCount: 2
Fore
SplineSet
-21 0 m 1
 83 645.400390625 l 1
 224 645.400390625 l 1
 123 0 l 1
 -21 0 l 1
117.353515625 224.368164062 m 2
 140.645507812 372.244140625 194.583984375 436.02734375 307.0859375 430.098632812 c 0
 401.709960938 425.112304688 468.378822091 354.977211729 445.306640625 207.084960938 c 2
 413 0 l 1
 271 0 l 1
 305.672851562 214.443359375 l 2
 315.813216999 277.159113389 284.821289062 293.459960938 243.845703125 295.619140625 c 0
 204.856445312 297.673828125 167.467178747 285.014001512 157.673828125 222.243164062 c 2
 123 0 l 1
 83.03125 6.466796875 l 1
 117.353515625 224.368164062 l 2
EndSplineSet
EndChar

StartChar: i
Encoding: 105 105 44
Width: 215
Flags: HW
LayerCount: 2
Fore
SplineSet
143 5 m 5
 -6 -5 l 5
 -6 -5 -11.052734375 27.994140625 -1.7978515625 85.884765625 c 6
 52 422.400390625 l 5
 193 422.400390625 l 5
 146.64453125 134.44921875 l 6
 136.524414062 71.583984375 143 5 143 5 c 5
66.576171875 575.336914062 m 0
 72.4931640625 612.904296875 96.85546875 649.486328125 156.48046875 646.34375 c 0
 216.107421875 643.202148438 228.639648438 604.67578125 222.72265625 567.108398438 c 0
 216.8046875 529.5390625 192.442382812 492.958984375 132.815429688 496.100585938 c 0
 73.1904296875 499.243164062 60.658203125 537.768554688 66.576171875 575.336914062 c 0
EndSplineSet
EndChar

StartChar: j
Encoding: 106 106 45
Width: 215
Flags: HW
LayerCount: 2
Fore
SplineSet
83.1103515625 571.806640625 m 0
 89.02734375 609.374023438 113.388671875 645.956054688 173.014648438 642.814453125 c 0
 232.641601562 639.671875 245.173828125 601.145507812 239.255859375 563.578125 c 0
 233.338867188 526.009765625 208.975585938 489.428710938 149.349609375 492.571289062 c 0
 89.7236328125 495.712890625 77.1923828125 534.23828125 83.1103515625 571.806640625 c 0
68 422.400390625 m 5
 210 422.400390625 l 1
 142.735351562 -1.4384765625 l 2
 117.686735728 -159.271412683 6.802734375 -217.052734375 -105.69921875 -211.124023438 c 0
 -152.537109375 -208.65625 -168.024414062 -200.921875 -168.024414062 -200.921875 c 1
 -136.545898438 -63.125 l 1
 -136.545898438 -63.125 -121.025390625 -72.50390625 -84.1708984375 -74.4462890625 c 0
 -45.181640625 -76.5009765625 -8.23661507792 -66.8419148398 3.1015625 5.919921875 c 2
 68 422.400390625 l 5
EndSplineSet
EndChar

StartChar: k
Encoding: 107 107 46
Width: 530
Flags: HW
LayerCount: 2
Fore
SplineSet
-17.8291015625 0 m 1
 83.8291015625 645.400390625 l 1
 224.428710938 645.400390625 l 1
 122.770507812 0 l 1
 -17.8291015625 0 l 1
512.703125 416.400390625 m 1
 387.302890302 277.0066737 267.838867188 171.803710938 80.5185546875 93 c 0
 31.703125 164 l 1
 142 244 254 304 330.703125 426.400390625 c 1
 512.703125 416.400390625 l 1
456.170898438 5 m 1
 294.170898438 -5 l 1
 253.821108191 69.6748308739 216.245328712 146.011041308 184.768554688 226 c 1
 262.1171875 279 l 1
 319.966242185 180.242252446 386.083380571 90.4649068919 456.170898438 5 c 1
EndSplineSet
EndChar

StartChar: l
Encoding: 108 108 47
Width: 290
Flags: HW
HStem: -10.041 137.366<176.167 258.964> 625.4 20G<27.1064 167.711>
VStem: 27 140.711<137.173 645.4>
LayerCount: 2
Fore
SplineSet
219 645.400390625 m 5
 145.975585938 179.5078125 l 2
 138.329439084 130.72572892 175.506835938 124.508789062 194.6328125 123.500976562 c 0
 213.611328125 122.500976562 228.770507812 130.436523438 228.770507812 130.436523438 c 1
 216.680664062 -3.5390625 l 1
 216.680664062 -3.5390625 194.04296875 -14.7841796875 155.149414062 -12.7353515625 c 0
 62.509765625 -7.853515625 -17.1222485653 39.8295642564 7.9306640625 197.663085938 c 2
 79 645.400390625 l 1
 219 645.400390625 l 5
EndSplineSet
EndChar

StartChar: m
Encoding: 109 109 48
Width: 747
Flags: HW
HStem: 0 21G<33 173.6 302.622 443.222 572.244 712.844> 295.582 136.865<197.179 287.798 459.759 557.42> 402.4 20G<33 173.6>
VStem: 33 140.6<0 422.4> 133 40.5996<0 366.279> 302.622 140.6<0 281.043> 362.622 80.5996<0 366.279> 572.244 140.6<0 281.511>
LayerCount: 2
Fore
SplineSet
402.811523438 223.698242188 m 2
 426.103515625 371.575195312 472.041992188 435.358398438 584.543945312 429.4296875 c 0
 679.16796875 424.443359375 746.623046875 348.651367188 717.5625 201.803710938 c 1
 691.75390625 95.69140625 700.163085938 0.9033203125 700.163085938 0.9033203125 c 1
 558.884765625 -3.7392578125 l 1
 558.884765625 -3.7392578125 551.197265625 110.03515625 578.309570312 214.455078125 c 0
 590.700195312 276.766601562 562.279296875 292.791015625 521.303710938 294.950195312 c 0
 482.314453125 297.004882812 452.803710938 284.361328125 443.131835938 221.57421875 c 2
 409 0 l 1
 368.489257812 5.7978515625 l 1
 402.811523438 223.698242188 l 2
0 0 m 1
 19.9671298618 140.800130208 59.8583984375 276.600585938 24 417.400390625 c 1
 166 427.400390625 l 1
 200 289 158.643364287 140.800130208 139 0 c 1
 0 0 l 1
134.958984375 230.75390625 m 2xc9
 158.251953125 378.629882812 212.189453125 442.413085938 314.759765625 437.0078125 c 0
 399.453125 432.544921875 466.517238239 362.366684036 443.049804688 214.518554688 c 2
 409 0 l 1
 269 0 l 1
 303.416015625 221.876953125 l 2
 313.153973166 284.656688359 282.564453125 300.892578125 251.520507812 302.528320312 c 0
 222.462890625 304.059570312 184.700577902 291.456698748 175.280273438 228.62890625 c 2
 141 0 l 1xd5
 100.637695312 12.8525390625 l 1
 134.958984375 230.75390625 l 2xc9
EndSplineSet
EndChar

StartChar: n
Encoding: 110 110 49
Width: 508
Flags: HW
LayerCount: 2
Fore
SplineSet
73 417.400390625 m 1
 223 427.400390625 l 1
 223 427.400390625 227.247070312 394.555664062 218.252929688 336.616210938 c 2
 166 0 l 1
 24 0 l 1
 69.810546875 288.05078125 l 2
 79.8134765625 350.94921875 73 417.400390625 73 417.400390625 c 1
159.811523438 223.698242188 m 6
 183.103515625 371.575195312 229.041992188 435.358398438 341.543945312 429.4296875 c 4
 436.16796875 424.443359375 503.623046875 348.651367188 474.5625 201.803710938 c 5
 448.75390625 95.69140625 457.163085938 0.9033203125 457.163085938 0.9033203125 c 5
 315.884765625 -3.7392578125 l 5
 315.884765625 -3.7392578125 308.197265625 110.03515625 335.309570312 214.455078125 c 4
 347.700195312 276.766601562 319.279296875 292.791015625 278.303710938 294.950195312 c 4
 239.314453125 297.004882812 209.803710938 284.361328125 200.131835938 221.57421875 c 6
 166 0 l 5
 125.489257812 5.7978515625 l 5
 159.811523438 223.698242188 l 6
EndSplineSet
EndChar

StartChar: o
Encoding: 111 111 50
Width: 489
Flags: HW
HStem: -10.0479 136.865<190.893 295.33> 295.582 136.865<190.893 295.33>
VStem: 28 144.206<145.746 276.654> 314.017 144.206<145.746 276.654>
LayerCount: 2
Fore
SplineSet
208.309570312 -9.7451171875 m 0
 95.8076171875 -3.81640625 6.185546875 74.5810546875 29.478515625 222.458007812 c 0
 52.7705078125 370.333984375 165.411132812 438.072265625 277.913085938 432.14453125 c 0
 390.415039062 426.215820312 480.037109375 347.818359375 456.745117188 199.942382812 c 0
 433.452148438 52.0654296875 320.811523438 -15.6728515625 208.309570312 -9.7451171875 c 0
256.384765625 295.466796875 m 0
 217.395507812 297.521484375 182.578125 277.66796875 172.693359375 214.911132812 c 0
 162.80859375 152.154296875 190.849609375 128.987304688 229.837890625 126.932617188 c 0
 268.827148438 124.877929688 303.64453125 144.732421875 313.529296875 207.489257812 c 0
 323.4140625 270.24609375 295.373046875 293.412109375 256.384765625 295.466796875 c 0
EndSplineSet
EndChar

StartChar: p
Encoding: 112 112 51
Width: 496
Flags: HW
LayerCount: 2
Fore
SplineSet
259.484375 -11.4921875 m 0
 146.982421875 -5.5634765625 126.880859375 69.169921875 150.172851562 217.046875 c 0
 173.46484375 364.922851562 216.5859375 436.325195312 329.087890625 430.396484375 c 0
 441.58984375 424.467773438 501.41796875 347.640625 478.125976562 199.764648438 c 0
 454.833007812 51.8876953125 371.986328125 -17.4208984375 259.484375 -11.4921875 c 0
277.765625 295.2890625 m 0
 238.776367188 297.34375 203.958984375 277.490234375 194.07421875 214.733398438 c 0
 184.189453125 151.9765625 212.23046875 128.809570312 251.219726562 126.754882812 c 0
 290.208007812 124.701171875 325.025390625 144.5546875 334.91015625 207.311523438 c 0
 344.794921875 270.068359375 316.75390625 293.234375 277.765625 295.2890625 c 0
-17 -193 m 1
 15.6257251687 12.0623464487 68 207 60 417.400390625 c 5
 201 427.400390625 l 5
 194.07421875 219.733398438 156.88869501 12.1334635416 125 -193 c 1
 -17 -193 l 1
EndSplineSet
EndChar

StartChar: q
Encoding: 113 113 52
Width: 497
Flags: HW
LayerCount: 2
Fore
SplineSet
426 -188 m 5
 285 -198 l 5
 285 -198 283.323457015 -143.447753026 293.966796875 -75.5322265625 c 2
 372 422.400390625 l 1
 514 422.400390625 l 1
 433.442382812 -83.8896484375 l 2
 421.846021286 -156.770681109 426 -188 426 -188 c 5
275.80078125 295.55078125 m 0
 236.811523438 297.60546875 201.994140625 277.751953125 192.109375 214.995117188 c 0
 182.224609375 152.23828125 210.265625 129.071289062 249.254882812 127.016601562 c 0
 288.244140625 124.961914062 323.060546875 144.81640625 332.9453125 207.573242188 c 0
 342.831054688 270.330078125 314.790039062 293.49609375 275.80078125 295.55078125 c 0
197.932617188 -8.0908203125 m 0
 85.4306640625 -2.162109375 25.6015625 74.6650390625 48.89453125 222.541992188 c 0
 72.1865234375 370.41796875 155.033203125 439.7265625 267.53515625 433.797851562 c 0
 380.037109375 427.869140625 400.139648438 353.135742188 376.846679688 205.259765625 c 0
 353.5546875 57.3828125 310.434570312 -14.01953125 197.932617188 -8.0908203125 c 0
EndSplineSet
EndChar

StartChar: r
Encoding: 114 114 53
Width: 376
Flags: HW
LayerCount: 2
Fore
SplineSet
0 0 m 1
 19.9671298618 140.800130208 59.8583984375 276.600585938 24 417.400390625 c 1
 166 427.400390625 l 1
 200 289 158.643364287 140.800130208 139 0 c 1
 0 0 l 1
379.466796875 413.912109375 m 1
 338.395507812 274.6640625 l 1
 338.395507812 274.6640625 314.561523438 289.596679688 280.061523438 291.4140625 c 0
 241.072265625 293.46875 184.201854705 281.793815639 167.735351562 179.139648438 c 2
 139 0 l 1
 99.384765625 3.30859375 l 1
 133.70703125 221.209960938 l 2
 156.091796875 363.328125 224.670898438 432.076171875 311.520507812 427.561523438 c 0
 354.918945312 425.306640625 379.466796875 413.912109375 379.466796875 413.912109375 c 1
EndSplineSet
EndChar

StartChar: s
Encoding: 115 115 54
Width: 437
Flags: HW
LayerCount: 2
Fore
SplineSet
237.630859375 267.876953125 m 0
 345.288085938 236.384765625 408.504882812 201.30859375 396.223632812 123.334960938 c 0
 379.22265625 15.404296875 282.805664062 -12.912109375 150.44140625 -5.9365234375 c 0
 73.8095703125 -1.8984375 1.2509765625 24.9541015625 1.2509765625 24.9541015625 c 1
 40.9306640625 151.243164062 l 1
 40.9306640625 151.243164062 113.6796875 123.743164062 170.396484375 120.754882812 c 0
 229.248046875 117.653320312 249.9453125 124.153320312 252.594726562 140.973632812 c 0
 254.9296875 155.795898438 231.484375 161.918945312 211.833007812 167.672851562 c 0
 126.310546875 192.716796875 41.5986328125 218.525390625 56.3974609375 312.4765625 c 0
 71.8251953125 410.421875 167.927734375 436.740234375 280.4296875 430.811523438 c 0
 376.923828125 425.7265625 426.799804688 394.454101562 426.799804688 394.454101562 c 1
 386.705078125 279.764648438 l 1
 386.705078125 279.764648438 346.985351562 299.561523438 280.336914062 303.07421875 c 0
 214.533203125 306.541992188 199.873046875 301.53515625 198.166992188 290.70703125 c 0
 196.619140625 280.877929688 205.506835938 277.2734375 237.630859375 267.876953125 c 0
EndSplineSet
EndChar

StartChar: t
Encoding: 116 116 55
Width: 377
Flags: HW
HStem: -10.0479 136.865<248.525 382.096> 290.4 132<27 345>
VStem: 92 140.6<143.36 538.223>
LayerCount: 2
Fore
SplineSet
335.237304688 290.581054688 m 5
 19.236328125 290.58203125 l 5
 40 422.400390625 l 5
 356 422.400390625 l 5
 335.237304688 290.581054688 l 5
277.130859375 556.596679688 m 1
 220.97265625 200.0625 l 2
 211.086914062 137.306640625 244.283203125 123.9375 283.272460938 121.883789062 c 0
 320.125976562 119.94140625 358.970703125 131.490234375 358.970703125 131.490234375 c 1
 347.037109375 -6.330078125 l 1
 347.037109375 -6.330078125 318.512695312 -17.7861328125 261.744140625 -14.7939453125 c 0
 149.2421875 -8.8662109375 54.900390625 39.572265625 79.765625 197.434570312 c 2
 134.3515625 543.982421875 l 1
 277.130859375 556.596679688 l 1
EndSplineSet
EndChar

StartChar: u
Encoding: 117 117 56
Width: 507
Flags: HW
LayerCount: 2
Fore
SplineSet
434.3828125 5 m 1
 284.3828125 -5 l 1
 284.3828125 -5 280.135742188 27.8447265625 289.129882812 85.7841796875 c 2
 341.3828125 422.400390625 l 1
 483.3828125 422.400390625 l 1
 437.572265625 134.349609375 l 2
 427.569335938 71.451171875 434.3828125 5 434.3828125 5 c 1
347.571289062 198.702148438 m 2
 324.279296875 50.8251953125 278.340820312 -12.9580078125 165.838867188 -7.029296875 c 4
 71.21484375 -2.04296875 3.759765625 73.7490234375 32.8203125 220.596679688 c 1
 58.62890625 326.708984375 50.2197265625 421.497070312 50.2197265625 421.497070312 c 1
 191.498046875 426.139648438 l 1
 191.498046875 426.139648438 199.185546875 312.365234375 172.073242188 207.9453125 c 0
 159.682617188 145.633789062 188.103515625 129.609375 229.079101562 127.450195312 c 4
 268.068359375 125.395507812 297.579101562 138.0390625 307.250976562 200.826171875 c 2
 341.3828125 422.400390625 l 1
 381.893554688 416.602539062 l 1
 347.571289062 198.702148438 l 2
EndSplineSet
EndChar

StartChar: v
Encoding: 118 118 57
Width: 520
Flags: HW
LayerCount: 2
Fore
SplineSet
297.333007812 0 m 1
 176.733398438 0 l 1
 245.188624079 141.781730053 335.232282602 278.540115757 373.266601562 427.400390625 c 1
 523.866210938 417.400390625 l 1
 486.008002542 268.213253545 394.138867385 133.447550468 297.333007812 0 c 1
156.733398438 0 m 1
 133.039729273 138.482269201 116.054445471 276.379105074 63.2666015625 417.400390625 c 1
 213.866210938 427.400390625 l 1
 260.460413109 280.802426564 260.489169874 141.766577399 277.333007812 0 c 1
 156.733398438 0 l 1
EndSplineSet
EndChar

StartChar: w
Encoding: 119 119 58
Width: 751
Flags: HW
LayerCount: 2
Fore
SplineSet
557.333007812 0 m 1
 436.733398438 0 l 1
 526 132 563.612070054 268.651827739 603.266601562 427.400390625 c 1
 753.866210938 417.400390625 l 1
 713.093468527 275.965932981 655.211064024 136.122902053 557.333007812 0 c 1
416.733398438 0 m 1
 409.702728249 142.421427812 383.284179688 277.6171875 353.266601562 417.400390625 c 5
 483.866210938 427.400390625 l 5
 532.147460938 290.423828125 529.286125215 142.027312395 537.333007812 0 c 1
 416.733398438 0 l 1
267.333007812 0 m 1
 146.733398438 0 l 1
 220.5960794 136.949769952 291.2890625 269.944335938 333.266601562 417.400390625 c 5
 483.866210938 427.400390625 l 5
 433.72265625 284.483398438 355.865842891 137.628779484 267.333007812 0 c 1
126.733398438 0 m 1
 111.337813626 139.133463548 102.322000476 278.266927078 63.2666015625 417.400390625 c 1
 213.866210938 427.400390625 l 1
 250.119277074 284.933593756 242.683711711 142.466796866 247.333007812 0 c 1
 126.733398438 0 l 1
EndSplineSet
EndChar

StartChar: x
Encoding: 120 120 59
Width: 529
VWidth: 999
Flags: HW
HStem: 0 21G<29 191.977 336.023 500> 403 20G<39 201.397 334.95 500>
LayerCount: 2
Fore
SplineSet
145.686523438 -5 m 1
 -4.3134765625 5 l 1
 278.254882812 302 l 1
 382.313476562 428 l 5
 533.313476562 418 l 5
 251.3203125 131 l 1
 145.686523438 -5 l 1
315.686523438 0 m 1
 251.3203125 131 l 1
 72.3134765625 423 l 1
 222.313476562 423 l 1
 278.254882812 302 l 1
 466.686523438 0 l 1
 315.686523438 0 l 1
EndSplineSet
EndChar

StartChar: y
Encoding: 121 121 60
Width: 530
Flags: HW
HStem: 0 21G<192.781 300.956> 402.4 20G<40.3564 196.423 344.143 500.956>
LayerCount: 2
Fore
SplineSet
178.953125 3.8203125 m 1
 169.276497192 117.595188616 155.779296875 237.956054688 98 417.400390625 c 1
 249 427.400390625 l 1
 271.065429688 291.109375 288.371758178 154.819010417 282.77734375 18.5283203125 c 1
 178.953125 3.8203125 l 1
419 426.400390625 m 1
 570 418.400390625 l 1
 403 -13 89.3271484375 -210.994140625 89.3271484375 -210.994140625 c 1
 34.2724609375 -120.805664062 l 1
 34.2724609375 -120.805664062 325 62 419 426.400390625 c 1
EndSplineSet
EndChar

StartChar: z
Encoding: 122 122 61
Width: 420
Flags: HW
LayerCount: 2
Fore
SplineSet
354.733398438 0 m 1
 -3.2666015625 0 l 1
 17.525390625 132 l 1
 375.525390625 132 l 1
 354.733398438 0 l 1
400.474609375 290.400390625 m 1
 42.474609375 290.400390625 l 1
 63.2666015625 422.400390625 l 1
 421.266601562 422.400390625 l 1
 400.474609375 290.400390625 l 1
17.525390625 132 m 1
 228.474609375 290.400390625 l 1
 400.474609375 290.400390625 l 1
 179.525390625 132 l 1
 17.525390625 132 l 1
EndSplineSet
EndChar

StartChar: comma
Encoding: 44 44 63
Width: 271
Flags: HW
LayerCount: 2
Fore
SplineSet
53.5986328125 95.9169921875 m 0
 62.662109375 153.140625 107.098632812 188.46875 157.068359375 185.849609375 c 0
 207.040039062 183.231445312 239.646484375 143.865234375 230.583984375 86.6416015625 c 0
 217.877929688 6.4248046875 109.385742188 -84.8349609375 109.385742188 -84.8349609375 c 1
 50.6708984375 -43.068359375 l 1
 110.821289062 1.861328125 l 1
 64.564453125 8.76953125 46.361328125 50.220703125 53.5986328125 95.9169921875 c 0
EndSplineSet
EndChar

StartChar: period
Encoding: 46 46 64
Width: 273
Flags: HW
LayerCount: 2
Fore
SplineSet
48.12109375 96.2001953125 m 0
 57.1845703125 153.423828125 101.62109375 188.751953125 151.590820312 186.1328125 c 0
 201.561523438 183.513671875 234.16796875 144.1484375 225.10546875 86.9248046875 c 0
 216.041992188 29.7001953125 171.604492188 -5.626953125 121.633789062 -3.0078125 c 0
 71.6640625 -0.388671875 39.0576171875 38.9755859375 48.12109375 96.2001953125 c 0
EndSplineSet
EndChar

StartChar: exclam
Encoding: 33 33 65
Width: 294
Flags: HW
LayerCount: 2
Fore
SplineSet
28.51171875 96.2001953125 m 0
 37.5751953125 153.423828125 82.01171875 188.751953125 131.981445312 186.1328125 c 0
 181.952148438 183.513671875 214.55859375 144.1484375 205.49609375 86.9248046875 c 0
 196.432617188 29.7001953125 151.995117188 -5.626953125 102.024414062 -3.0078125 c 0
 52.0546875 -0.388671875 19.4482421875 38.9755859375 28.51171875 96.2001953125 c 0
84.8720703125 230 m 1
 102.718837145 389.610444964 122.18359375 509.331054688 147.909179688 633 c 1
 279.909179688 623 l 1
 248.578125 510.622070312 217 403 186.872070312 230 c 1
 84.8720703125 230 l 1
EndSplineSet
EndChar

StartChar: ampersand
Encoding: 38 38 66
Width: 614
Flags: HW
HStem: -10.0479 132.255<174.042 300.799> 502.098 138.462<237.402 419.848>
VStem: 26 144.206<128.741 186.261> 83 136.849<368.796 482.196>
LayerCount: 2
Fore
SplineSet
240.91015625 311.354492188 m 1xe0
 256.900390625 240.545898438 l 0
 170.239257812 221.0546875 151.94140625 205.931640625 147.419921875 177.389648438 c 0
 142.966796875 149.268554688 167.245117188 129.29296875 201.737304688 127.485351562 c 0
 241.682617188 125.391601562 317 113 432.731445312 383.493164062 c 1
 560.955078125 335.219726562 l 1
 436 106 320.099609375 -11.154296875 167.064453125 -3.134765625 c 0
 42.955078125 3.3701171875 -14.060546875 74.619140625 -1.779296875 152.163085938 c 0
 21.662109375 300.163085938 197.220703125 308.762695312 240.91015625 311.354492188 c 1xe0
539.026367188 4.43359375 m 1
 539.026367188 4.43359375 519.469726562 -4.603515625 459.663085938 -1.46875 c 0
 348.534179688 4.35546875 304.490234375 38.7783203125 246.6015625 125.3671875 c 0
 202.016601562 192.056640625 86.6337890625 348.004882812 105.131835938 464.795898438 c 0
 123.629882812 581.587890625 226.639648438 645.244140625 358.05859375 638.356445312 c 0
 478.590820312 632.040039062 526.864257812 590.897460938 526.864257812 590.897460938 c 5
 462.831054688 462.072265625 l 5
 462.831054688 462.072265625 427.272460938 496.077148438 336.279296875 500.845703125 c 0
 277.517578125 503.92578125 244.91015625 477.315429688 239.590820312 443.73046875 c 0xd0
 233.012695312 402.200195312 248.465820312 337.7578125 289.926757812 271.762695312 c 0
 360.5546875 159.337890625 385.31640625 113.715820312 546.766601562 124.192382812 c 1
 539.026367188 4.43359375 l 1
EndSplineSet
EndChar

StartChar: question
Encoding: 63 63 67
Width: 541
Flags: HW
LayerCount: 2
Fore
SplineSet
215.1015625 370.895507812 m 1
 215.1015625 370.895507812 367.439453125 335.056640625 382.197265625 428.229492188 c 0
 390.662109375 481.676757812 354.762695312 497.858398438 276.028320312 501.984375 c 0
 195.021484375 506.229492188 97.861328125 469.166015625 97.861328125 469.166015625 c 1
 75.353515625 602.52734375 l 1
 75.353515625 602.52734375 187.262695312 645.288085938 297.80859375 639.495117188 c 0
 449.200195312 631.560546875 544.356445312 549.5625 525.858398438 432.771484375 c 0
 507.360351562 315.979492188 386.170898438 255.78515625 251.663085938 283.86328125 c 0
 215.1015625 370.895507812 l 1
188.401367188 234.10546875 m 1
 215.1015625 370.895507812 l 1
 299.583007812 319.403320312 l 1
 290.26171875 228.767578125 l 1
 188.401367188 234.10546875 l 1
129.676757812 98.5556640625 m 0
 138.740234375 155.779296875 183.176757812 191.107421875 233.145507812 188.48828125 c 0
 283.116210938 185.869140625 315.723632812 146.50390625 306.66015625 89.2802734375 c 0
 297.596679688 32.056640625 253.159179688 -3.271484375 203.189453125 -0.65234375 c 0
 153.219726562 1.966796875 120.61328125 41.3310546875 129.676757812 98.5556640625 c 0
EndSplineSet
EndChar

StartChar: at
Encoding: 64 64 68
Width: 687
Flags: HW
HStem: -72.5596 119.652<265.09 509.901> 127.5 103.407<476.807 525.627> 127.5 89.0244<309.146 367.431> 291.668 89.0244<309.146 375.462> 471.907 108.652<256.792 450.289>
VStem: 36 115.145<158.486 364.214> 195.416 111.485<218.212 289.981> 533.633 110.145<233.891 393.073>
LayerCount: 2
Fore
SplineSet
336.373046875 215.114257812 m 0xbf
 359.424804688 212.680664062 371.448242188 227.787109375 377.051757812 248.915039062 c 0
 382.65625 270.04296875 377.999023438 286.909179688 356.03125 289.2265625 c 0
 332.979492188 291.66015625 320.599609375 276.591796875 314.99609375 255.46484375 c 0
 309.391601562 234.336914062 313.3203125 217.546875 336.373046875 215.114257812 c 0xbf
293.918945312 129.333007812 m 0
 225.911132812 136.510742188 183.846679688 187.174804688 205.038085938 267.0703125 c 0
 226.23046875 346.96484375 291.818359375 384.575195312 360.157226562 379.053710938 c 4
 430.833007812 373.34375 435.958984375 298.032226562 425.766601562 233.67578125 c 0
 414.709960938 163.8671875 357.587890625 122.61328125 293.918945312 129.333007812 c 0
308.495117188 -71.3623046875 m 0
 117.157226562 -61.3349609375 5.3349609375 73.662109375 36.416015625 269.904296875 c 0
 67.498046875 466.146484375 229.876953125 586.7734375 401.241210938 577.791992188 c 0
 572.606445312 568.811523438 679.161132812 464.131835938 654.372070312 307.614257812 c 0
 638.727539062 208.83984375 589.243164062 114.2578125 485.985351562 119.669921875 c 0
 380.149414062 125.216796875 339.49609375 235.978515625 422.84375 373.76171875 c 1
 509.032226562 369.245117188 l 1
 456.375 262.077148438 472.60546875 223.919921875 497.2578125 222.627929688 c 0xdf
 517.729492188 221.555664062 533.482421875 244.58984375 541.153320312 293.020507812 c 0
 558.958984375 405.44140625 493.7265625 464.143554688 385.149414062 469.833984375 c 0
 276.573242188 475.524414062 174.2421875 408.080078125 152.9765625 273.809570312 c 0
 131.709960938 139.5390625 198.766601562 54.205078125 340.297851562 46.787109375 c 0
 494.811523438 38.689453125 559.030273438 91.2587890625 559.030273438 91.2587890625 c 1
 587.25390625 -25.2119140625 l 1
 587.25390625 -25.2119140625 469.873046875 -79.8203125 308.495117188 -71.3623046875 c 0
EndSplineSet
EndChar

StartChar: colon
Encoding: 58 58 69
Width: 273
Flags: HW
LayerCount: 2
Fore
SplineSet
67.0419921875 335.944335938 m 4
 76.10546875 393.16796875 120.541992188 428.495117188 170.510742188 425.876953125 c 4
 220.481445312 423.2578125 253.088867188 383.892578125 244.025390625 326.668945312 c 4
 234.961914062 269.444335938 190.524414062 234.116210938 140.553710938 236.735351562 c 4
 90.5849609375 239.353515625 57.978515625 278.719726562 67.0419921875 335.944335938 c 4
29.201171875 97.0263671875 m 0
 38.2646484375 154.25 82.701171875 189.578125 132.669921875 186.958984375 c 0
 182.640625 184.340820312 215.248046875 144.974609375 206.184570312 87.7509765625 c 0
 197.12109375 30.52734375 152.68359375 -4.7998046875 102.713867188 -2.181640625 c 0
 52.744140625 0.4375 20.1376953125 39.802734375 29.201171875 97.0263671875 c 0
EndSplineSet
EndChar

StartChar: semicolon
Encoding: 59 59 70
Width: 272
Flags: HW
LayerCount: 2
Fore
SplineSet
34.6796875 96.76953125 m 0
 43.7421875 153.993164062 88.1787109375 189.321289062 138.1484375 186.702148438 c 0
 188.120117188 184.083984375 220.727539062 144.717773438 211.6640625 87.494140625 c 4
 198.958984375 7.27734375 90.4658203125 -83.982421875 90.4658203125 -83.982421875 c 1
 31.7509765625 -42.2158203125 l 1
 91.9013671875 2.7138671875 l 1
 45.64453125 9.6220703125 27.44140625 51.0732421875 34.6796875 96.76953125 c 0
73.5185546875 335.634765625 m 0
 82.58203125 392.859375 127.018554688 428.186523438 176.98828125 425.567382812 c 0
 226.958984375 422.948242188 259.56640625 383.583984375 250.502929688 326.359375 c 0
 241.439453125 269.135742188 197.001953125 233.806640625 147.03125 236.42578125 c 0
 97.0615234375 239.044921875 64.455078125 278.411132812 73.5185546875 335.634765625 c 0
EndSplineSet
EndChar
